<?xml version="1.0" encoding="UTF-8" standalone="no"?>
<!-- Created with Inkscape (http://www.inkscape.org/) -->

<svg
   xmlns:dc="http://purl.org/dc/elements/1.1/"
   xmlns:cc="http://creativecommons.org/ns#"
   xmlns:rdf="http://www.w3.org/1999/02/22-rdf-syntax-ns#"
   xmlns:svg="http://www.w3.org/2000/svg"
   xmlns="http://www.w3.org/2000/svg"
   xmlns:sodipodi="http://sodipodi.sourceforge.net/DTD/sodipodi-0.dtd"
   xmlns:inkscape="http://www.inkscape.org/namespaces/inkscape"
   width="210mm"
   height="297mm"
   viewBox="0 0 210 297"
   version="1.1"
   id="svg8"
   inkscape:version="0.92.4 (5da689c313, 2019-01-14)"
   sodipodi:docname="logo_wlm.svg">
  <defs
     id="defs2" />
  <sodipodi:namedview
     id="base"
     pagecolor="#ffffff"
     bordercolor="#666666"
     borderopacity="1.0"
     inkscape:pageopacity="0.0"
     inkscape:pageshadow="2"
     inkscape:zoom="1.7290323"
     inkscape:cx="243.04099"
     inkscape:cy="962.08101"
     inkscape:document-units="mm"
     inkscape:current-layer="layer1"
     showgrid="false"
     showguides="true"
     inkscape:guide-bbox="true"
     inkscape:window-width="1366"
     inkscape:window-height="705"
     inkscape:window-x="-8"
     inkscape:window-y="-8"
     inkscape:window-maximized="1">
    <sodipodi:guide
       position="29.682928,265.39406"
       orientation="0,1"
       id="guide232"
       inkscape:locked="false" />
  </sodipodi:namedview>
  <metadata
     id="metadata5">
    <rdf:RDF>
      <cc:Work
         rdf:about="">
        <dc:format>image/svg+xml</dc:format>
        <dc:type
           rdf:resource="http://purl.org/dc/dcmitype/StillImage" />
        <dc:title></dc:title>
      </cc:Work>
    </rdf:RDF>
  </metadata>
  <g
     inkscape:label="Layer 1"
     inkscape:groupmode="layer"
     id="layer1">
    <path
       style="fill:#ffcc00;stroke-width:0.26458332"
       id="path179-8"
       sodipodi:type="arc"
       sodipodi:cx="40.09227"
       sodipodi:cy="38.236511"
       sodipodi:rx="17.444731"
       sodipodi:ry="16.756121"
       sodipodi:start="0"
       sodipodi:end="6.139824"
       sodipodi:open="true"
       d="M 57.537001,38.236511 A 17.444731,16.756121 0 0 1 40.717361,54.981871 17.444731,16.756121 0 0 1 22.692336,39.436573 17.444731,16.756121 0 0 1 38.220207,21.577154 17.444731,16.756121 0 0 1 57.358041,35.842552" />
    <path
       style="fill:#ffffff;stroke-width:0.26458332"
       id="path203"
       sodipodi:type="arc"
       sodipodi:cx="46.136723"
       sodipodi:cy="40.990944"
       sodipodi:rx="17.521242"
       sodipodi:ry="16.679609"
       sodipodi:start="0"
       sodipodi:end="6.139824"
       sodipodi:open="true"
       d="M 63.657965,40.990944 A 17.521242,16.679609 0 0 1 46.764555,57.659842 17.521242,16.679609 0 0 1 28.660474,42.185526 17.521242,16.679609 0 0 1 44.256449,24.407656 17.521242,16.679609 0 0 1 63.478221,38.607916" />
    <path
       style="fill:#ff0000;stroke-width:0.99999994"
       d="M 148.14258 78.583984 A 65.932841 63.33022 0 0 0 141.5625 78.949219 A 65.932841 63.33022 0 0 0 82.875 146.44922 A 65.932841 63.33022 0 0 0 106.35547 190.41406 A 65.932841 63.33022 0 0 1 93.863281 157.72656 A 65.932841 63.33022 0 0 1 152.55078 90.226562 A 65.932841 63.33022 0 0 1 201.66211 104.40625 A 65.932841 63.33022 0 0 0 148.14258 78.583984 z "
       transform="scale(0.26458333)"
       id="path179" />
    <flowRoot
       xml:space="preserve"
       id="flowRoot214"
       style="fill:black;fill-opacity:1;stroke:none;font-family:'Segoe UI Historic';font-style:normal;font-weight:normal;font-size:40px;line-height:1.25;letter-spacing:0px;word-spacing:0px;-inkscape-font-specification:'Segoe UI Historic';font-stretch:normal;font-variant:normal;"><flowRegion
         id="flowRegion216"
         style="-inkscape-font-specification:'Segoe UI Historic';font-family:'Segoe UI Historic';font-weight:normal;font-style:normal;font-stretch:normal;font-variant:normal;"><rect
           id="rect218"
           width="42.902252"
           height="60.028847"
           x="129.44849"
           y="120.34531"
           style="-inkscape-font-specification:'Segoe UI Historic';font-family:'Segoe UI Historic';font-weight:normal;font-style:normal;font-stretch:normal;font-variant:normal;" /></flowRegion><flowPara
         id="flowPara220"></flowPara></flowRoot>    <path
       style="fill:#ffffff;stroke-width:0.26458332"
       id="path222"
       d="m 34.557073,32.630157 c 0.691914,1.857486 1.501849,3.66889 2.344999,5.461942 0.628557,1.358744 1.30438,2.711693 1.761913,4.141766 0.233913,0.731118 0.271936,1.014124 0.424659,1.756971 0.128873,1.04906 0.411274,2.130272 0.265867,3.191722 -0.08248,0.335814 -0.272979,0.567616 -0.543928,0.766326 0,0 -2.106943,0.809191 -2.106943,0.809191 v 0 c 0.290232,-0.128336 0.512553,-0.294754 0.640604,-0.598466 0.09979,-0.400151 0.09457,-0.714931 0.07522,-1.129504 -0.03185,-0.682371 -0.09547,-1.363274 -0.204383,-2.037935 -0.147331,-0.770326 -0.167227,-0.978045 -0.395031,-1.73945 -0.42931,-1.434915 -1.065387,-2.799839 -1.689327,-4.15708 -0.852258,-1.788335 -1.652958,-3.600752 -2.553483,-5.365531 0,0 1.979832,-1.099952 1.979833,-1.099952 z"
       inkscape:connector-curvature="0" />
    <path
       style="fill:#ffffff;stroke-width:0.26458332"
       id="path224"
       sodipodi:type="arc"
       sodipodi:cx="-19.740088"
       sodipodi:cy="48.030045"
       sodipodi:rx="20.352182"
       sodipodi:ry="12.394939"
       sodipodi:start="0"
       sodipodi:end="6.139824"
       sodipodi:open="true"
       d="M 0.61209488,48.030045 A 20.352182,12.394939 0 0 1 -19.010815,60.417024 20.352182,12.394939 0 0 1 -40.040006,48.917761 20.352182,12.394939 0 0 1 -21.92416,35.706684 20.352182,12.394939 0 0 1 0.40330908,46.25917" />
    <path
       style="fill:#ff0000;stroke-width:0.19064879"
       d="m 1.3771844,25.328885 c 0,0 1.2023619,2.100165 3.5253665,4.387847 L 9.9466866,28.59587 6.1758582,30.885135 c 0.4184835,0.355716 0.8663305,0.706924 1.3379027,1.049033 l 5.9520921,-1.80816 -4.717541,2.6386 c 0.548087,0.34013 1.1273075,0.659691 1.734259,0.954463 l 6.655926,-1.60352 -3.72122,2.722832 c 1.395005,0.390591 2.904248,0.623218 4.528922,0.623218 h 1.703255 a 9.7692315,6.6292314 0 0 0 8.728667,3.229777 9.7692315,6.6292314 0 0 0 9.419063,-6.625437 l -0.100252,-0.947227 a 9.7692315,6.6292314 0 0 0 -8.047054,-5.583639 l 0.01912,-0.20619 z"
       id="path228"
       inkscape:connector-curvature="0" />
    <path
       style="fill:#280b0b;stroke:#ff0000;stroke-width:0.16209267"
       id="path3981"
       sodipodi:type="arc"
       sodipodi:cx="42.704643"
       sodipodi:cy="21.863039"
       sodipodi:rx="1.1114514"
       sodipodi:ry="0.51023543"
       sodipodi:start="0"
       sodipodi:end="6.139824"
       sodipodi:open="true"
       d="m 43.816095,21.863039 a 1.1114514,0.51023543 0 0 1 -1.071625,0.509908 1.1114514,0.51023543 0 0 1 -1.148424,-0.473365 1.1114514,0.51023543 0 0 1 0.989323,-0.543832 1.1114514,0.51023543 0 0 1 1.219324,0.434391" />
    <path
       style="fill:#280b0b;stroke:#ff0000;stroke-width:0.15924188"
       id="path3983"
       d="m 27.386898,37.064709 c -0.330194,-0.239053 -0.553232,-0.555997 -0.799151,-0.848594 -0.205518,-0.260687 -0.403235,-0.528428 -0.570425,-0.80621 -0.08145,-0.182813 -0.167424,-0.364594 -0.270533,-0.540499 -0.09869,-0.202365 -0.197495,-0.403511 -0.311857,-0.60069 -0.146666,-0.228087 -0.217471,-0.475648 -0.258101,-0.727628 -0.03311,-0.2452 -0.03248,-0.492169 -0.03506,-0.738456 -0.0027,-0.201963 -3.7e-5,-0.403923 9.5e-5,-0.605889 0.0022,-0.246107 0.0051,-0.492201 0.004,-0.738319 -0.0016,-0.20471 -0.0035,-0.40942 -0.0045,-0.614136 -0.0079,-0.211145 0.04926,-0.41884 0.136392,-0.617081 0.110282,-0.199213 0.242366,-0.391071 0.385234,-0.576752 0.117073,-0.152518 0.266977,-0.286108 0.422739,-0.414139 0.189839,-0.169328 0.441687,-0.28105 0.683436,-0.396969 0.739618,-0.336968 1.464136,-0.703569 2.251112,-0.969378 0.307655,-0.107745 0.606982,-0.212954 0.937925,-0.266944 0.257841,-0.03374 0.520441,-0.03407 0.781116,-0.03544 0.353939,0.02452 0.653019,0.172827 0.948802,0.315525 0.386532,0.215371 0.758087,0.445433 1.114846,0.690894 0.297447,0.198643 0.55595,0.431695 0.781857,0.682004 0.149268,0.17579 0.301388,0.349996 0.419355,0.540549 0.110533,0.184764 0.135906,0.385664 0.149058,0.586911 0.01015,0.236694 0.0079,0.473634 0.0063,0.710432 0.0085,0.232529 -0.0116,0.46461 -0.0652,0.693272 -0.04559,0.221927 -0.190644,0.376061 -0.401291,0.518797 -0.678042,0.394943 -1.405366,0.752844 -2.18424,1.006972 -0.298636,0.109419 -0.620118,0.167343 -0.944856,0.200572 -0.248688,0.02069 -0.499204,0.01777 -0.748907,0.0178 -0.220277,-4.26e-4 -0.440551,-9.78e-4 -0.660829,-0.0012 -0.207259,-2.82e-4 -0.414518,-2.82e-4 -0.621779,-2.82e-4 -0.240822,-0.02916 -0.461375,-0.112397 -0.678336,-0.196174 -0.129894,-0.07381 -0.283504,-0.124339 -0.402238,-0.21076 -0.05749,-0.04185 -0.12865,-0.11729 -0.176727,-0.165593 -0.185258,-0.175532 -0.315745,-0.367784 -0.393668,-0.587046 -0.06864,-0.218209 -0.07735,-0.443628 -0.0846,-0.667265 -0.0051,-0.191059 -0.0011,-0.382142 -3.58e-4,-0.573211 -0.0033,-0.210982 -0.006,-0.420037 0.03937,-0.628348 0.07489,-0.263162 0.254478,-0.493448 0.456247,-0.706737 0.547796,-0.454393 1.288601,-0.818362 2.08015,-0.904783 0.292014,-0.03763 0.562812,0.03176 0.837654,0.100568 0.360569,0.09568 0.715793,0.21303 1.047964,0.360212 0.198731,0.08708 0.384597,0.190499 0.57943,0.282715 0.172892,0.0858 0.325742,0.179994 0.453949,0.305909 0.159007,0.173937 0.264902,0.369148 0.340179,0.574225 0.07783,0.216528 0.0788,0.433614 0.01761,0.651848 -0.07673,0.20922 -0.179046,0.407613 -0.347746,0.580454 -0.51185,0.405205 -1.179146,0.760484 -1.909644,0.796868 -0.235727,0.0087 -0.471804,0.0065 -0.707703,0.0054 -0.228423,-0.0048 -0.457887,0.0095 -0.684241,-0.01753 -0.314818,-0.03288 -0.451697,-0.107036 -0.632038,-0.30825 -0.136243,-0.165863 -0.18714,-0.355919 -0.214408,-0.54934 -0.0171,-0.177318 -0.0332,-0.354096 0.02741,-0.52655 0.05634,-0.09433 0.131868,-0.191201 0.249279,-0.246013 0.761032,-0.355285 1.010392,-0.591207 1.666993,-0.688517 0.303792,-0.0078 0.495349,0.09874 0.709958,0.250899 0.16539,0.104426 0.239993,0.24808 0.296764,0.404215 0,0 -1.343897,0.578591 -1.343897,0.578591 v 0 c -0.04384,-0.137557 -0.10628,-0.254393 -0.253567,-0.343153 -0.180462,-0.12709 -0.375766,-0.20342 -0.624092,-0.155461 -0.513687,0.124154 -1.103664,0.481477 0.968677,-0.488712 0.127007,-0.05945 -0.39345,0.159446 -0.280899,0.179933 -0.110332,0.147435 -0.06072,0.308696 -0.05945,0.473785 0.01748,0.17303 0.05014,0.34528 0.17247,0.493931 0.159516,0.168904 0.298923,0.203741 0.562447,0.223117 0.225484,0.0096 0.451446,0.0033 0.677182,0.0069 0.231968,8.56e-4 0.464865,0.0037 0.69573,-0.0171 0.08701,-0.0122 0.12648,-0.01471 0.208382,-0.03764 0.03186,-0.0089 0.122377,-0.04499 0.09337,-0.03126 -2.157538,1.021582 -1.462466,0.702259 -1.026022,0.46753 0.191949,-0.158296 0.296068,-0.324457 0.378907,-0.534026 0.08733,-0.193329 0.07759,-0.393229 0.01816,-0.592032 -0.06352,-0.190324 -0.16043,-0.370925 -0.314404,-0.527299 -0.121162,-0.11288 -0.270564,-0.194824 -0.429852,-0.271906 -0.185909,-0.09626 -0.369305,-0.195998 -0.561717,-0.283761 -0.326801,-0.140223 -0.671509,-0.259032 -1.029936,-0.338101 -0.266725,-0.05696 -0.526419,-0.103845 -0.802567,-0.05192 -0.101882,0.01797 -0.144517,0.02252 -0.243621,0.05246 -0.04347,0.01319 -0.167471,0.06378 -0.127678,0.04469 2.158833,-1.036198 1.302998,-0.659371 0.907261,-0.39291 -0.210171,0.190068 -0.384896,0.410584 -0.483585,0.652043 -0.05563,0.200571 -0.04997,0.401129 -0.04673,0.605765 -0.0011,0.190458 -0.0011,0.380917 -0.0021,0.571376 0.0024,0.214759 0.0063,0.431138 0.06385,0.641996 0.06744,0.204053 0.193013,0.380876 0.365332,0.542457 0.149613,0.14362 0.333701,0.244891 0.543308,0.32931 0.204939,0.07338 0.413018,0.151346 0.643188,0.150752 0.207242,5.5e-5 0.414485,1.29e-4 0.621726,6.96e-4 0.219323,6.97e-4 0.438642,0.002 0.657968,0.0021 0.244816,-6.95e-4 0.490547,-0.002 0.733282,-0.03051 0.316965,-0.04225 0.624969,-0.11278 0.916604,-0.2216 0.568028,-0.193723 0.150443,-0.05731 -0.994196,0.482381 -0.04821,0.02273 0.100386,-0.03997 0.14808,-0.06337 0.09781,-0.04799 0.188803,-0.104214 0.284477,-0.154851 0.04797,-0.02539 0.09611,-0.05057 0.144157,-0.07586 0.21589,-0.1335 0.375446,-0.217281 0.432152,-0.444161 0.08335,-0.215919 0.08995,-0.446131 0.08766,-0.670374 -7.1e-5,-0.234447 0.0028,-0.468956 -0.0061,-0.703334 -0.01137,-0.184804 -0.02532,-0.371453 -0.122116,-0.543016 -0.112709,-0.184627 -0.25963,-0.354756 -0.399794,-0.526667 -0.215734,-0.242844 -0.464798,-0.469869 -0.748854,-0.663965 -0.353509,-0.239894 -0.720448,-0.465462 -1.108698,-0.669355 -0.28401,-0.131303 -0.574987,-0.259688 -0.914587,-0.253958 -0.253796,0.003 -0.509567,0.0078 -0.75774,0.0547 -0.318366,0.06667 -0.612249,0.180213 -0.914956,0.281177 -0.559567,0.203008 -1.955909,0.820213 0.358048,-0.212041 -0.23576,0.114695 -0.486933,0.215842 -0.693099,0.363362 -0.144888,0.131799 -0.309589,0.248524 -0.436006,0.392988 -0.140745,0.183334 -0.280935,0.366635 -0.398149,0.560629 -0.108112,0.17604 -0.154721,0.376858 -0.156767,0.572385 -8.79e-4,0.205935 -0.0028,0.411864 -0.0045,0.617795 -0.0011,0.245295 0.0016,0.490565 0.0028,0.735856 -0.0011,0.202287 -5.37e-4,0.404571 -0.0039,0.606848 -0.0013,0.242343 -0.0016,0.485141 0.0244,0.726801 0.03436,0.240561 0.09331,0.477838 0.239048,0.693707 0.11199,0.197166 0.216324,0.395998 0.315779,0.597329 0.105007,0.175962 0.189224,0.358997 0.264676,0.544146 0.154115,0.276169 0.345175,0.540818 0.543432,0.798144 0.231022,0.286242 0.452475,0.595875 0.801528,0.802674 0,0 -1.301167,0.647563 -1.301167,0.647563 z"
       inkscape:connector-curvature="0" />
    <text
       xml:space="preserve"
       style="font-style:normal;font-weight:normal;font-size:10.58333302px;line-height:1.25;font-family:'Segoe UI Historic';letter-spacing:0px;word-spacing:0px;fill:#000000;fill-opacity:1;stroke:none;stroke-width:0.26458332;-inkscape-font-specification:'Segoe UI Historic';font-stretch:normal;font-variant:normal;"
       x="34.317871"
       y="46.048294"
       id="text3987"><tspan
         sodipodi:role="line"
         id="tspan3985"
         x="34.317871"
         y="55.703789"
         style="stroke-width:0.26458332;-inkscape-font-specification:'Segoe UI Historic';font-family:'Segoe UI Historic';font-weight:normal;font-style:normal;font-stretch:normal;font-variant:normal;" /></text>
    <text
       xml:space="preserve"
       style="font-style:normal;font-weight:normal;font-size:10.58333302px;line-height:1.25;font-family:'Segoe UI Historic';letter-spacing:0px;word-spacing:0px;fill:#000000;fill-opacity:1;stroke:none;stroke-width:0.26458332;-inkscape-font-specification:'Segoe UI Historic';font-stretch:normal;font-variant:normal;"
       x="30.451763"
       y="43.439327"
       id="text3991"><tspan
         sodipodi:role="line"
         id="tspan3989"
         x="30.451763"
         y="53.094822"
         style="stroke-width:0.26458332;-inkscape-font-specification:'Segoe UI Historic';font-family:'Segoe UI Historic';font-weight:normal;font-style:normal;font-stretch:normal;font-variant:normal;"></tspan></text>
    <text
       xml:space="preserve"
       style="font-style:normal;font-variant:normal;font-weight:normal;font-stretch:normal;font-size:9.71744061px;line-height:1.25;font-family:'Viner Hand ITC';-inkscape-font-specification:'Viner Hand ITC';letter-spacing:0px;word-spacing:0px;fill:#000000;fill-opacity:1;stroke:none;stroke-width:0.24293599"
       x="37.091736"
       y="37.745865"
       id="text4027"
       transform="scale(0.80149795,1.2476638)"><tspan
         sodipodi:role="line"
         id="tspan4025"
         x="37.091736"
         y="37.745865"
         style="font-style:normal;font-variant:normal;font-weight:normal;font-stretch:normal;font-family:'Viner Hand ITC';-inkscape-font-specification:'Viner Hand ITC';stroke-width:0.24293599">W.L.M</tspan></text>
  </g>
</svg>
