<?xml version="1.0" encoding="UTF-8" standalone="no"?>
<!-- Created with Inkscape (http://www.inkscape.org/) -->

<svg
   xmlns:dc="http://purl.org/dc/elements/1.1/"
   xmlns:cc="http://creativecommons.org/ns#"
   xmlns:rdf="http://www.w3.org/1999/02/22-rdf-syntax-ns#"
   xmlns:svg="http://www.w3.org/2000/svg"
   xmlns="http://www.w3.org/2000/svg"
   xmlns:sodipodi="http://sodipodi.sourceforge.net/DTD/sodipodi-0.dtd"
   xmlns:inkscape="http://www.inkscape.org/namespaces/inkscape"
   width="210mm"
   height="297mm"
   viewBox="0 0 210 297"
   version="1.1"
   id="svg4074"
   inkscape:version="0.92.4 (5da689c313, 2019-01-14)"
   sodipodi:docname="logo_new_wlm.svg">
  <defs
     id="defs4068" />
  <sodipodi:namedview
     id="base"
     pagecolor="#ffffff"
     bordercolor="#666666"
     borderopacity="1.0"
     inkscape:pageopacity="0.0"
     inkscape:pageshadow="2"
     inkscape:zoom="0.49497475"
     inkscape:cx="298.40224"
     inkscape:cy="589.61534"
     inkscape:document-units="mm"
     inkscape:current-layer="layer1"
     showgrid="false"
     inkscape:window-width="1366"
     inkscape:window-height="705"
     inkscape:window-x="-8"
     inkscape:window-y="-8"
     inkscape:window-maximized="1" />
  <metadata
     id="metadata4071">
    <rdf:RDF>
      <cc:Work
         rdf:about="">
        <dc:format>image/svg+xml</dc:format>
        <dc:type
           rdf:resource="http://purl.org/dc/dcmitype/StillImage" />
        <dc:title></dc:title>
      </cc:Work>
    </rdf:RDF>
  </metadata>
  <g
     inkscape:label="Layer 1"
     inkscape:groupmode="layer"
     id="layer1">
    <path
       style="fill:#ffcc00;stroke-width:1.10075712"
       id="path179-8"
       sodipodi:type="arc"
       sodipodi:cx="135.08038"
       sodipodi:cy="147.25645"
       sodipodi:rx="60.025742"
       sodipodi:ry="84.286575"
       sodipodi:start="0"
       sodipodi:end="6.139824"
       sodipodi:open="true"
       d="M 195.10612,147.25645 A 60.025742,84.286575 0 0 1 137.23126,231.4889 60.025742,84.286575 0 0 1 75.208785,153.293 60.025742,84.286575 0 0 1 128.63879,63.456618 60.025742,84.286575 0 0 1 194.49034,135.21437" />
    <path
       style="fill:#ffffff;stroke-width:1.09890413"
       id="path203"
       sodipodi:type="arc"
       sodipodi:cx="151.82899"
       sodipodi:cy="161.03389"
       sodipodi:rx="60.289013"
       sodipodi:ry="83.619484"
       sodipodi:start="0"
       sodipodi:end="6.139824"
       sodipodi:open="true"
       d="m 212.11801,161.03389 a 60.289013,83.619484 0 0 1 -58.1287,83.56578 60.289013,83.619484 0 0 1 -62.294508,-77.57701 60.289013,83.619484 0 0 1 53.664338,-89.125367 60.289013,83.619484 0 0 1 66.14038,71.189817" />
    <path
       inkscape:connector-curvature="0"
       style="fill:#ff0000;stroke-width:1.10075712"
       d="M 131.9966,59.507182 A 60.025738,84.286578 0 0 0 126.00603,59.993278 60.025738,84.286578 0 0 0 72.576501,149.82946 60.025738,84.286578 0 0 0 93.953288,208.3425 60.025738,84.286578 0 0 1 82.580312,164.83856 60.025738,84.286578 0 0 1 136.00983,75.002364 60.025738,84.286578 0 0 1 180.72114,93.874195 60.025738,84.286578 0 0 0 131.9966,59.507182 Z"
       id="path179" />
    <path
       style="fill:#ffffff;stroke-width:1.10075712"
       id="path222"
       d="m 116.03424,119.05537 c 2.38082,9.34352 5.16774,18.45525 8.06896,27.47464 2.16279,6.83476 4.48824,13.64035 6.06256,20.8339 0.80489,3.67767 0.9357,5.10126 1.46123,8.83792 0.44345,5.27696 1.41516,10.7157 0.91483,16.05498 -0.28381,1.68921 -0.93931,2.85523 -1.87162,3.85478 0,0 -7.2498,4.07039 -7.2498,4.07039 v 0 c 0.99865,-0.64555 1.76365,-1.48267 2.20427,-3.0104 0.34336,-2.01286 0.3254,-3.59627 0.25882,-5.68163 -0.1095,-3.43248 -0.32851,-6.85755 -0.70328,-10.25121 -0.50694,-3.87489 -0.57538,-4.91976 -1.35924,-8.74976 -1.47722,-7.21791 -3.6659,-14.08375 -5.81283,-20.91095 -2.93257,-8.99568 -5.68769,-18.11248 -8.7863,-26.9897 0,0 6.8124,-5.53296 6.8124,-5.53296 z"
       inkscape:connector-curvature="0" />
    <path
       style="fill:#ff0000;stroke-width:0.79316425"
       d="m 1.8652657,82.328541 c 0,0 4.1372159,10.564243 12.1304653,22.071739 l 17.356416,-5.63816 -12.975082,11.51546 c 1.439966,1.78932 2.980967,3.55596 4.603606,5.27683 l 20.480611,-9.09539 -16.232633,13.27267 c 1.88592,1.7109 3.878962,3.31839 5.96743,4.80111 l 22.902437,-8.06601 -12.80438,13.69639 c 4.800086,1.96477 9.993253,3.13493 15.583608,3.13493 h 5.860746 a 33.615039,33.346336 0 0 0 30.034556,16.24642 33.615039,33.346336 0 0 0 32.410154,-33.32727 l -0.34496,-4.76475 A 33.615039,33.346336 0 0 0 99.149042,83.365719 l 0.06582,-1.037178 z"
       id="path228"
       inkscape:connector-curvature="0" />
    <path
       style="fill:#280b0b;stroke:#ff0000;stroke-width:0.67436111"
       id="path3981"
       sodipodi:type="arc"
       sodipodi:cx="144.06934"
       sodipodi:cy="64.894661"
       sodipodi:rx="3.824403"
       sodipodi:ry="2.5665843"
       sodipodi:start="0"
       sodipodi:end="6.139824"
       sodipodi:open="true"
       d="m 147.89374,64.894661 a 3.824403,2.5665843 0 0 1 -3.68737,2.564936 3.824403,2.5665843 0 0 1 -3.95162,-2.381119 3.824403,2.5665843 0 0 1 3.40417,-2.73558 3.824403,2.5665843 0 0 1 4.19559,2.185073" />
    <path
       style="fill:#280b0b;stroke:#ff0000;stroke-width:0.66250092"
       id="path3983"
       d="m 91.362334,141.36205 c -1.136166,-1.2025 -1.903619,-2.79678 -2.749804,-4.26859 -0.707169,-1.31129 -1.387497,-2.65814 -1.962781,-4.05541 -0.280263,-0.91957 -0.576092,-1.83398 -0.930882,-2.7188 -0.339583,-1.01794 -0.67956,-2.02974 -1.07307,-3.02161 -0.504664,-1.1473 -0.748298,-2.39261 -0.888103,-3.66011 -0.113916,-1.23341 -0.111766,-2.4757 -0.120641,-3.71457 -0.0094,-1.01593 -1.24e-4,-2.03182 3.29e-4,-3.04773 0.0076,-1.238 0.01759,-2.47589 0.01378,-3.7139 -0.0055,-1.02975 -0.0119,-2.05948 -0.01548,-3.08922 -0.02719,-1.06211 0.169494,-2.10685 0.469312,-3.10406 0.37947,-1.00206 0.833961,-1.96716 1.325556,-2.90116 0.402837,-0.76721 0.918643,-1.43919 1.454605,-2.08321 0.65322,-0.85175 1.519806,-1.41373 2.351643,-1.996827 2.544957,-1.695013 5.037955,-3.539088 7.745879,-4.876158 1.05861,-0.54198 2.088563,-1.071201 3.227313,-1.34278 0.88721,-0.169714 1.79079,-0.171377 2.68774,-0.178269 1.21788,0.123338 2.24698,0.86936 3.26476,1.587159 1.33002,1.083354 2.60852,2.240614 3.8361,3.475331 1.02349,0.999212 1.91296,2.171514 2.6903,3.430614 0.51361,0.88426 1.03701,1.76055 1.44294,2.71906 0.38035,0.9294 0.46764,1.93997 0.5129,2.95228 0.0349,1.19062 0.0273,2.38247 0.0215,3.57362 0.0291,1.16966 -0.0398,2.33708 -0.22433,3.48729 -0.15688,1.11633 -0.65602,1.89165 -1.38082,2.60965 -2.3331,1.98663 -4.83574,3.78694 -7.51577,5.06527 -1.02758,0.55036 -2.13378,0.84178 -3.25119,1.00889 -0.8557,0.10405 -1.71772,0.0895 -2.576908,0.0895 -0.757956,-9e-4 -1.515903,-0.006 -2.273859,-0.006 -0.713161,-9e-4 -1.426322,-9e-4 -2.139483,-9e-4 -0.82865,-0.1467 -1.587559,-0.56535 -2.3341,-0.98678 -0.446951,-0.37127 -0.975509,-0.62546 -1.384061,-1.06016 -0.197818,-0.21053 -0.442674,-0.59 -0.608101,-0.83296 -0.637458,-0.883 -1.086451,-1.85004 -1.354578,-2.95295 -0.236181,-1.09764 -0.266152,-2.23157 -0.291101,-3.3565 -0.01759,-0.96107 -0.0039,-1.92224 -0.0012,-2.88333 -0.0114,-1.06129 -0.02064,-2.1129 0.13547,-3.16075 0.25769,-1.32374 0.875636,-2.48214 1.569905,-3.55502 1.884915,-2.28569 4.433953,-4.11651 7.157603,-4.55123 1.0048,-0.18929 1.936583,0.15975 2.882303,0.50588 1.24067,0.48129 2.46297,1.07157 3.60595,1.81193 0.68382,0.43803 1.32336,0.95826 1.99376,1.42211 0.59491,0.4316 1.12086,0.90542 1.56198,1.53878 0.54713,0.87494 0.91153,1.8569 1.17056,2.88848 0.2678,1.08916 0.27112,2.18115 0.0606,3.27892 -0.26401,1.05243 -0.61605,2.05038 -1.19655,2.91978 -1.76122,2.03829 -4.05732,3.82541 -6.57089,4.0084 -0.81112,0.0436 -1.62344,0.0328 -2.435152,0.0274 -0.785979,-0.0241 -1.575538,0.0477 -2.354404,-0.0883 -1.083262,-0.16541 -1.554257,-0.53832 -2.174791,-1.55045 -0.468793,-0.83432 -0.643931,-1.79036 -0.737758,-2.76328 -0.05881,-0.89194 -0.114234,-1.78118 0.09431,-2.64866 0.193863,-0.4745 0.453746,-0.96177 0.857747,-1.2375 2.618644,-1.78715 3.476673,-2.9739 5.735968,-3.46339 1.04533,-0.0392 1.70444,0.4967 2.44291,1.26209 0.5691,0.52527 0.8258,1.24789 1.02114,2.03328 0,0 -4.624231,2.91044 -4.624231,2.91044 v 0 c -0.150852,-0.69206 -0.365705,-1.27978 -0.872509,-1.72626 -0.620949,-0.63928 -1.292971,-1.02324 -2.147439,-0.78201 -1.767547,0.62455 -3.797607,2.42194 3.333132,-2.45831 0.437027,-0.29904 -1.353829,0.80206 -0.96655,0.9051 -0.379646,0.74163 -0.208924,1.55281 -0.204558,2.38324 0.06013,0.87037 0.17252,1.73682 0.593457,2.48457 0.548879,0.84963 1.028568,1.02486 1.935328,1.12233 0.77588,0.0483 1.55339,0.0167 2.33011,0.0349 0.79819,0.004 1.59957,0.0187 2.39395,-0.086 0.29941,-0.0613 0.43521,-0.074 0.71704,-0.18935 0.10966,-0.0447 0.42107,-0.2263 0.32126,-0.15724 -7.423874,5.13877 -5.03221,3.53249 -3.53043,2.35176 0.66046,-0.79627 1.01874,-1.63208 1.30376,-2.68624 0.30051,-0.97249 0.267,-1.97802 0.0625,-2.97805 -0.21856,-0.95786 -0.55202,-1.8663 -1.08183,-2.65291 -0.4169,-0.5678 -0.93099,-0.97999 -1.47907,-1.36773 -0.63971,-0.48421 -1.27075,-0.98592 -1.93282,-1.42738 -1.124503,-0.70535 -2.310602,-1.30298 -3.54391,-1.70071 -0.917786,-0.28653 -1.811367,-0.52236 -2.761571,-0.26116 -0.350562,0.0904 -0.497262,0.11321 -0.838275,0.26387 -0.149573,0.0664 -0.576252,0.32082 -0.439326,0.22481 7.428352,-5.212289 4.48349,-3.31677 3.121802,-1.97643 -0.723181,0.95609 -1.324396,2.06533 -1.663976,3.2799 -0.191417,1.00892 -0.171939,2.01777 -0.16079,3.04712 -0.0038,0.95804 -0.0038,1.9161 -0.0072,2.87415 0.0082,1.08028 0.02169,2.16871 0.219701,3.22936 0.232055,1.02645 0.664142,1.91589 1.257069,2.72867 0.514816,0.72244 1.148247,1.23185 1.869477,1.65647 0.705177,0.3691 1.421161,0.76132 2.213153,0.75834 0.713096,2.8e-4 1.426216,6.4e-4 2.139316,0.004 0.75468,0.004 1.50932,0.0115 2.26401,0.0115 0.84238,-0.004 1.68791,-0.0115 2.52315,-0.15342 1.09063,-0.21252 2.15045,-0.56729 3.15395,-1.11467 1.95454,-0.97448 0.51765,-0.28827 -3.42093,2.42642 -0.1659,0.11439 0.3454,-0.20102 0.50952,-0.31873 0.33657,-0.24139 0.64965,-0.52421 0.97886,-0.77893 0.16507,-0.12781 0.33072,-0.25437 0.49603,-0.38157 0.74286,-0.67157 1.29186,-1.09299 1.48699,-2.23423 0.28681,-1.08611 0.3095,-2.24415 0.30163,-3.37213 -2.6e-4,-1.17931 0.008,-2.35892 -0.0208,-3.53789 -0.0392,-0.92966 -0.0872,-1.86854 -0.42028,-2.73154 -0.3878,-0.92872 -0.89335,-1.78449 -1.37563,-2.64923 -0.74233,-1.22156 -1.59934,-2.36353 -2.57675,-3.33988 -1.21638,-1.20671 -2.47899,-2.341368 -3.81493,-3.366985 -0.97725,-0.66048 -1.978483,-1.306283 -3.147015,-1.277458 -0.873295,0.01517 -1.75337,0.03921 -2.607317,0.275151 -1.095469,0.335361 -2.10669,0.906505 -3.148273,1.414373 -1.92542,1.021169 -6.730106,4.125829 1.232003,-1.066607 -0.811226,0.576941 -1.675483,1.085726 -2.384885,1.827781 -0.498545,0.662975 -1.065265,1.250125 -1.500257,1.976815 -0.484291,0.92219 -0.96667,1.84425 -1.369994,2.82007 -0.372001,0.88552 -0.532379,1.89566 -0.53942,2.87921 -0.003,1.03588 -0.0097,2.07176 -0.01547,3.10763 -0.0039,1.23389 0.0055,2.46764 0.0097,3.70151 -0.0039,1.01754 -0.0017,2.03505 -0.0133,3.05256 -0.0043,1.21902 -0.0055,2.44035 0.08397,3.65596 0.118234,1.21006 0.321071,2.40359 0.822542,3.48946 0.385347,0.99181 0.744353,1.99197 1.086567,3.0047 0.36132,0.8851 0.651102,1.80581 0.910726,2.73716 0.530297,1.38918 1.187718,2.72041 1.869896,4.01482 0.794935,1.43985 1.556934,2.99735 2.757991,4.03762 0,0 -4.477198,3.25735 -4.477198,3.25735 z"
       inkscape:connector-curvature="0" />
    <text
       xml:space="preserve"
       style="font-style:normal;font-variant:normal;font-weight:normal;font-stretch:normal;font-size:40.42787552px;line-height:1.25;font-family:'Viner Hand ITC';-inkscape-font-specification:'Viner Hand ITC';letter-spacing:0px;word-spacing:0px;fill:#000000;fill-opacity:1;stroke:none;stroke-width:1.01069701"
       x="149.97957"
       y="127.15182"
       id="text4027"
       transform="scale(0.66289777,1.5085282)"><tspan
         sodipodi:role="line"
         id="tspan4025"
         x="149.97957"
         y="127.15182"
         style="font-style:normal;font-variant:normal;font-weight:normal;font-stretch:normal;font-family:'Viner Hand ITC';-inkscape-font-specification:'Viner Hand ITC';stroke-width:1.01069701">W.L.M</tspan></text>
  </g>
</svg>
